<svg width="35" height="35" viewBox="0 0 35 35" fill="none" xmlns="http://www.w3.org/2000/svg">
<circle cx="17.5" cy="17.5" r="17.5" fill="#C36B7B" fill-opacity="0.2"/>
<path d="M27.7108 26.29L26.2908 27.71C26.1034 27.8962 25.85 28.0008 25.5858 28.0008C25.3216 28.0008 25.0682 27.8962 24.8808 27.71L13.0008 15.85C12.6756 15.9443 12.3393 15.9948 12.0008 16C11.3641 15.9995 10.7367 15.8471 10.1708 15.5554C9.60486 15.2636 9.11676 14.841 8.74705 14.3226C8.37735 13.8043 8.13673 13.2051 8.0452 12.575C7.95367 11.945 8.01387 11.3021 8.22079 10.7L10.7608 13.24L11.2908 12.71L12.7108 11.29L13.2408 10.76L10.7008 8.22C11.3029 8.01307 11.9458 7.95287 12.5758 8.04441C13.2059 8.13594 13.8051 8.37656 14.3234 8.74626C14.8418 9.11596 15.2644 9.60407 15.5562 10.17C15.8479 10.7359 16.0003 11.3633 16.0008 12C15.9956 12.3385 15.9451 12.6748 15.8508 13L27.7108 24.88C27.897 25.0674 28.0016 25.3208 28.0016 25.585C28.0016 25.8492 27.897 26.1026 27.7108 26.29ZM8.29079 24.88C8.10454 25.0674 8 25.3208 8 25.585C8 25.8492 8.10454 26.1026 8.29079 26.29L9.71079 27.71C9.89816 27.8962 10.1516 28.0008 10.4158 28.0008C10.68 28.0008 10.9334 27.8962 11.1208 27.71L16.5908 22.25L13.7608 19.42M26.0008 8L22.0008 10V12L19.8308 14.17L21.8308 16.17L24.0008 14H26.0008L28.0008 10L26.0008 8Z" fill="#C36B7B"/>
</svg>
