<svg width="35" height="35" viewBox="0 0 35 35" fill="none" xmlns="http://www.w3.org/2000/svg">
<path d="M17.333 3.34983C16.1786 3.3553 15.0766 3.45346 14.1065 3.62518C11.2491 4.12994 10.7306 5.18651 10.7306 7.1353V9.70862H17.4826V10.5664H8.1964C6.23422 10.5664 4.51593 11.7457 3.97836 13.9901C3.3582 16.5618 3.33086 18.1669 3.97836 20.8523C4.45824 22.8514 5.60449 24.2755 7.56695 24.2755H9.88871V21.1905C9.88871 18.9617 11.8167 16.996 14.1068 16.996H20.8511C22.7285 16.996 24.227 15.45 24.227 13.5649V7.13557C24.227 5.30545 22.6831 3.93088 20.8511 3.62545C19.6906 3.4324 18.4872 3.34463 17.333 3.34983ZM13.6816 5.41948C14.3788 5.41948 14.9487 5.99834 14.9487 6.71037C14.9487 7.4194 14.3791 7.9928 13.6816 7.9928C12.9816 7.9928 12.4147 7.4194 12.4147 6.71037C12.4145 5.99834 12.9816 5.41948 13.6816 5.41948Z" fill="url(#paint0_linear_884_1300)"/>
<path d="M25.0697 10.5647V13.5632C25.0697 15.8875 23.0988 17.8439 20.8516 17.8439H14.1073C12.26 17.8439 10.7314 19.4252 10.7314 21.2753V27.7052C10.7314 29.5347 12.3223 30.6112 14.1073 31.136C16.2445 31.7641 18.2942 31.8778 20.8516 31.136C22.5513 30.6435 24.2275 29.6531 24.2275 27.7052V25.1316H17.4834V24.2735H27.6039C29.5661 24.2735 30.2978 22.905 30.9803 20.8504C31.6852 18.7353 31.6549 16.7012 30.9803 13.9882C30.4952 12.0345 29.5691 10.5645 27.6039 10.5645L25.0697 10.5647ZM21.2763 26.8471C21.9766 26.8471 22.5434 27.4205 22.5434 28.1301C22.5434 28.8416 21.9763 29.4204 21.2763 29.4204C20.579 29.4204 20.0095 28.8416 20.0095 28.1301C20.0095 27.4205 20.579 26.8471 21.2763 26.8471Z" fill="url(#paint1_linear_884_1300)"/>
<path opacity="0.444" d="M26.6077 32.7019C26.6077 33.6707 22.5564 34.4563 17.5593 34.4563C12.562 34.4563 8.51074 33.6707 8.51074 32.7019C8.51074 31.7331 12.5617 30.9473 17.5593 30.9473C22.5564 30.9473 26.6077 31.7326 26.6077 32.7019Z" fill="url(#paint2_radial_884_1300)"/>
<defs>
<linearGradient id="paint0_linear_884_1300" x1="2.82606" y1="4.15445" x2="18.3994" y2="17.4353" gradientUnits="userSpaceOnUse">
<stop stop-color="#5A9FD4"/>
<stop offset="1" stop-color="#306998"/>
</linearGradient>
<linearGradient id="paint1_linear_884_1300" x1="24.2595" y1="25.6892" x2="18.6746" y2="17.8574" gradientUnits="userSpaceOnUse">
<stop stop-color="#FFD43B"/>
<stop offset="1" stop-color="#FFE873"/>
</linearGradient>
<radialGradient id="paint2_radial_884_1300" cx="0" cy="0" r="1" gradientUnits="userSpaceOnUse" gradientTransform="translate(17.5228 32.6517) rotate(-90) scale(1.75501 7.71473)">
<stop stop-color="#B8B8B8" stop-opacity="0.498"/>
<stop offset="1" stop-color="#7F7F7F" stop-opacity="0"/>
</radialGradient>
</defs>
</svg>
