<svg width="45" height="45" viewBox="0 0 45 45" fill="none" xmlns="http://www.w3.org/2000/svg">
<path fill-rule="evenodd" clip-rule="evenodd" d="M37.5 0C39.4891 0 41.3968 0.790177 42.8033 2.1967C44.2098 3.60322 45 5.51088 45 7.5V37.5C45 39.4891 44.2098 41.3968 42.8033 42.8033C41.3968 44.2098 39.4891 45 37.5 45H7.5C5.51088 45 3.60322 44.2098 2.1967 42.8033C0.790177 41.3968 0 39.4891 0 37.5V7.5C0 5.51088 0.790177 3.60322 2.1967 2.1967C3.60322 0.790177 5.51088 0 7.5 0H37.5ZM12.5 17.5C11.837 17.5 11.2011 17.7634 10.7322 18.2322C10.2634 18.7011 10 19.337 10 20V32.5C10 33.163 10.2634 33.7989 10.7322 34.2678C11.2011 34.7366 11.837 35 12.5 35C13.163 35 13.7989 34.7366 14.2678 34.2678C14.7366 33.7989 15 33.163 15 32.5V20C15 19.337 14.7366 18.7011 14.2678 18.2322C13.7989 17.7634 13.163 17.5 12.5 17.5ZM20 15C19.337 15 18.7011 15.2634 18.2322 15.7322C17.7634 16.2011 17.5 16.837 17.5 17.5V32.5C17.5 33.163 17.7634 33.7989 18.2322 34.2678C18.7011 34.7366 19.337 35 20 35C20.663 35 21.2989 34.7366 21.7678 34.2678C22.2366 33.7989 22.5 33.163 22.5 32.5V23.35C23.2625 22.49 24.55 21.48 25.9825 20.8675C26.815 20.5125 28.0675 20.3675 28.9375 20.6425C29.2261 20.7157 29.4832 20.8807 29.67 21.1125C29.8 21.2875 30 21.6775 30 22.5V32.5C30 33.163 30.2634 33.7989 30.7322 34.2678C31.2011 34.7366 31.837 35 32.5 35C33.163 35 33.7989 34.7366 34.2678 34.2678C34.7366 33.7989 35 33.163 35 32.5V22.5C35 20.825 34.575 19.335 33.69 18.14C32.8756 17.0564 31.7359 16.2618 30.4375 15.8725C28.1825 15.165 25.685 15.5575 24.0175 16.2725C23.4837 16.5021 22.9636 16.7626 22.46 17.0525C22.3552 16.4765 22.0515 15.9555 21.602 15.5804C21.1524 15.2053 20.5855 14.9999 20 15ZM12.5 10C11.837 10 11.2011 10.2634 10.7322 10.7322C10.2634 11.2011 10 11.837 10 12.5C10 13.163 10.2634 13.7989 10.7322 14.2678C11.2011 14.7366 11.837 15 12.5 15C13.163 15 13.7989 14.7366 14.2678 14.2678C14.7366 13.7989 15 13.163 15 12.5C15 11.837 14.7366 11.2011 14.2678 10.7322C13.7989 10.2634 13.163 10 12.5 10Z" fill="white"/>
</svg>
