<svg width="246" height="60" viewBox="0 0 246 60" fill="none" xmlns="http://www.w3.org/2000/svg">
<path d="M32.3334 5C45.2204 5 55.6667 15.4463 55.6667 28.3333C55.6667 41.2203 45.2204 51.6667 32.3334 51.6667C28.2098 51.6738 24.1587 50.5825 20.5967 48.505L9.00937 51.6667L12.164 40.0747C10.0849 36.5115 8.99281 32.4587 9.00004 28.3333C9.00004 15.4463 19.4464 5 32.3334 5ZM24.3814 17.3667L23.9147 17.3853C23.613 17.4061 23.3182 17.4854 23.0467 17.6187C22.7937 17.7622 22.5627 17.9414 22.3607 18.1507C22.0807 18.4143 21.922 18.643 21.7517 18.8647C20.8887 19.9868 20.424 21.3644 20.431 22.78C20.4357 23.9233 20.7344 25.0363 21.201 26.077C22.1554 28.1817 23.7257 30.41 25.7977 32.475C26.297 32.972 26.787 33.4713 27.3144 33.9357C29.889 36.2023 32.957 37.8369 36.2744 38.7097L37.5997 38.9127C38.0314 38.936 38.463 38.9033 38.897 38.8823C39.5765 38.8465 40.2399 38.6625 40.8407 38.3433C41.146 38.1855 41.4442 38.0142 41.7344 37.83C41.7344 37.83 41.8331 37.7631 42.026 37.62C42.341 37.3867 42.5347 37.221 42.796 36.948C42.992 36.7458 43.1554 36.5109 43.286 36.2433C43.468 35.863 43.65 35.1373 43.7247 34.533C43.7807 34.071 43.7644 33.819 43.7574 33.6627C43.748 33.413 43.5404 33.154 43.314 33.0443L41.956 32.4353C41.956 32.4353 39.926 31.551 38.6847 30.9863C38.5548 30.9298 38.4156 30.8974 38.274 30.8907C38.1144 30.874 37.953 30.8918 37.8008 30.9429C37.6486 30.994 37.5092 31.0773 37.392 31.187C37.3804 31.1823 37.224 31.3153 35.537 33.3593C35.4402 33.4894 35.3068 33.5878 35.1539 33.6418C35.001 33.6958 34.8354 33.7031 34.6784 33.6627C34.5263 33.6221 34.3774 33.5707 34.2327 33.5087C33.9434 33.3873 33.843 33.3407 33.6447 33.2567C32.3051 32.6731 31.0651 31.8835 29.9697 30.9163C29.6757 30.6597 29.4027 30.3797 29.1227 30.109C28.2048 29.2298 27.4048 28.2353 26.7427 27.1503L26.605 26.9287C26.5076 26.7789 26.4278 26.6184 26.367 26.4503C26.2784 26.1073 26.5094 25.832 26.5094 25.832C26.5094 25.832 27.0764 25.2113 27.34 24.8753C27.5967 24.5487 27.8137 24.2313 27.9537 24.005C28.229 23.5617 28.3154 23.1067 28.1707 22.7543C27.5174 21.1583 26.8423 19.5709 26.1454 17.992C26.0077 17.6793 25.5994 17.4553 25.2284 17.411C25.1024 17.3954 24.9764 17.383 24.8504 17.3737C24.5371 17.3557 24.2229 17.3588 23.91 17.383L24.3814 17.3667Z" fill="white"/>
</svg>
