<svg width="20" height="20" viewBox="0 0 20 20" fill="none" xmlns="http://www.w3.org/2000/svg">
<path d="M4.42501 10.7593C4.32652 10.7592 4.229 10.7397 4.13803 10.702C4.04706 10.6642 3.96442 10.6089 3.89482 10.5392C3.82523 10.4696 3.77004 10.3868 3.73241 10.2958C3.69478 10.2048 3.67544 10.1073 3.67551 10.0088C3.67557 9.91027 3.69504 9.81276 3.73279 9.72179C3.77054 9.63082 3.82584 9.54818 3.89553 9.47858C3.96522 9.40898 4.04794 9.3538 4.13896 9.31616C4.22998 9.27853 4.32752 9.2592 4.42601 9.25927L4.42501 10.7593ZM5.55551 10.0098V10.7598H5.55501L5.55551 10.0098ZM10.574 9.25977C10.7729 9.25977 10.9637 9.33878 11.1043 9.47944C11.245 9.62009 11.324 9.81085 11.324 10.0098C11.324 10.2087 11.245 10.3994 11.1043 10.5401C10.9637 10.6807 10.7729 10.7598 10.574 10.7598V9.25977ZM10.5833 10.7598C10.3843 10.7598 10.1936 10.6807 10.0529 10.5401C9.91227 10.3994 9.83326 10.2087 9.83326 10.0098C9.83326 9.81085 9.91227 9.62009 10.0529 9.47944C10.1936 9.33878 10.3843 9.25977 10.5833 9.25977V10.7598ZM16 9.25977C16.1989 9.25977 16.3897 9.33878 16.5303 9.47944C16.671 9.62009 16.75 9.81085 16.75 10.0098C16.75 10.2087 16.671 10.3994 16.5303 10.5401C16.3897 10.6807 16.1989 10.7598 16 10.7598V9.25977ZM4.42601 9.25927H4.44476L4.44401 10.7593H4.42501L4.42601 9.25927ZM4.44476 9.25927H4.66726L4.66601 10.7593H4.44401L4.44476 9.25927ZM4.66726 9.25927H4.88926L4.88826 10.7593H4.66601L4.66726 9.25927ZM4.88926 9.25927L5.11176 9.25952L5.11051 10.7595L4.88826 10.7593L4.88926 9.25927ZM5.11176 9.25952L5.33376 9.25977L5.33276 10.7598L5.11051 10.7595L5.11176 9.25952ZM5.33376 9.25977H5.55601L5.55501 10.7598H5.33276L5.33376 9.25977ZM5.55551 9.25977H10.574V10.7598H5.55551V9.25977ZM10.5833 9.25977H16V10.7598H10.5833V9.25977Z" fill="white"/>
<path d="M9.77751 16.2227L4.48351 10.9284C4.36162 10.8065 4.26493 10.6618 4.19897 10.5026C4.133 10.3433 4.09904 10.1727 4.09904 10.0003C4.09904 9.82791 4.133 9.65723 4.19897 9.49798C4.26493 9.33873 4.36162 9.19403 4.48351 9.07216L9.77776 3.77816" stroke="white" stroke-width="1.5" stroke-linecap="round" stroke-linejoin="round"/>
</svg>
