<svg width="26" height="26" viewBox="0 0 26 26" fill="none" xmlns="http://www.w3.org/2000/svg">
<path d="M22.9024 18.9916C22.096 18.1791 20.1429 16.9934 19.1954 16.5155C17.9614 15.8939 17.8598 15.8432 16.8899 16.5637C16.2429 17.0446 15.8128 17.4743 15.0557 17.3128C14.2985 17.1513 12.6532 16.2408 11.2125 14.8047C9.77188 13.3686 8.80856 11.6755 8.64657 10.9209C8.48458 10.1663 8.9213 9.74128 9.39762 9.0928C10.069 8.17874 10.0182 8.0264 9.44434 6.79241C8.99696 5.83265 7.77669 3.89788 6.96114 3.09554C6.08872 2.23378 6.08872 2.38612 5.52657 2.61972C5.0689 2.81224 4.62983 3.0463 4.21489 3.31898C3.40239 3.85878 2.95145 4.30718 2.6361 4.98105C2.32075 5.65491 2.17907 7.23472 3.80762 10.1932C5.43618 13.1517 6.57876 14.6645 8.94364 17.0228C11.3085 19.3811 13.127 20.6491 15.7854 22.14C19.074 23.9819 20.3354 23.6228 21.0113 23.308C21.6872 22.9932 22.1376 22.5463 22.6784 21.7338C22.9518 21.3195 23.1864 20.881 23.3792 20.4236C23.6133 19.8635 23.7657 19.8635 22.9024 18.9916Z" stroke="white" stroke-miterlimit="10"/>
</svg>
