<svg width="48" height="33" viewBox="0 0 48 33" fill="none" xmlns="http://www.w3.org/2000/svg">
<path d="M14.2669 21.5773L15.7244 26.3077C16.0518 27.3817 16.1884 28.1315 16.1337 28.5588C16.9308 26.4233 17.4878 24.0962 17.8047 21.5773H19.5572C18.8036 25.678 17.8098 28.6578 16.576 30.5167C15.6148 31.9492 14.5617 32.6654 13.415 32.6654C13.1093 32.6654 12.7324 32.573 12.2851 32.3896V31.4011C12.5036 31.4331 12.76 31.4503 13.0549 31.4503C13.5897 31.4502 14.0211 31.3021 14.349 31.006C14.7418 30.6454 14.9384 30.24 14.9384 29.7908C14.9384 29.484 14.785 28.8545 14.4798 27.9022L12.449 21.5773H14.2669ZM3.112 18.6699L5.78159 26.8172H5.79807L8.48406 18.6699H10.6786C11.1591 22.7104 11.4429 26.4073 11.53 29.7583H9.67985C9.61466 26.6259 9.43456 23.6801 9.13956 20.921H9.12345L6.30605 29.7583H4.89706L2.09671 20.921H2.08022C1.87259 23.5708 1.74157 26.5166 1.68718 29.7583H0C0.109032 25.8156 0.381892 22.1198 0.818581 18.6699H3.112Z" fill="#00758F"/>
<path d="M33.0185 18.506C35.8901 18.506 37.326 20.341 37.326 24.0095C37.326 26.0029 36.8941 27.5087 36.0314 28.5259C35.8759 28.7118 35.704 28.8724 35.523 29.0212L37.5552 30.0262L37.5532 30.0261L36.8317 31.2725L34.1852 29.7279C33.7465 29.8578 33.264 29.9228 32.7379 29.9228C31.3279 29.9228 30.2747 29.5118 29.5783 28.6907C28.814 27.7824 28.432 26.3526 28.432 24.4035C28.432 22.4213 28.8631 20.9213 29.7262 19.9027C30.5122 18.9711 31.6099 18.506 33.0185 18.506ZM24.2247 18.522C25.2511 18.522 26.1843 18.7967 27.0249 19.3441L26.5979 20.2958C25.8787 19.99 25.1695 19.8364 24.4701 19.8364C23.9027 19.8364 23.4654 19.973 23.1606 20.2479C22.8541 20.5204 22.6646 20.871 22.6646 21.2984C22.6646 21.9552 23.1323 22.5248 23.9961 23.006C24.279 23.1607 24.561 23.3172 24.842 23.4755L24.9065 23.5118L24.9388 23.5299L25.0033 23.5662L25.0355 23.5844L25.1 23.6207C25.7538 23.9894 26.369 24.3413 26.369 24.3413C27.2327 24.9546 27.6632 25.6084 27.6632 26.6852C27.6632 27.6256 27.3186 28.3975 26.6319 29.0016C25.9446 29.6029 25.0213 29.9044 23.865 29.9044C22.7836 29.9044 21.7355 29.5574 20.7203 28.8691L21.1953 27.9166C22.0689 28.3546 22.8595 28.5734 23.5694 28.5734C24.2352 28.5734 24.7564 28.4247 25.1334 28.1311C25.5097 27.8353 25.7352 27.4227 25.7352 26.8997C25.7352 26.2413 25.2773 25.6784 24.4374 25.2063C24.1745 25.061 23.9123 24.9143 23.651 24.7662L23.5866 24.7298C23.4684 24.663 23.3494 24.5953 23.2328 24.5291L23.1695 24.4931C22.6024 24.1704 22.112 23.8885 22.112 23.8885C21.2723 23.2741 20.8513 22.615 20.8513 21.5289C20.8513 20.6307 21.1653 19.9046 21.7923 19.3523C22.4209 18.7987 23.2317 18.522 24.2247 18.522ZM40.7008 18.6704V28.3947H44.1889V29.7587H38.9317V18.6705L40.7008 18.6704ZM46.1271 28.3989V28.6294H45.7436V29.7575H45.4504V28.6294H45.052V28.3989H46.1271ZM46.8352 28.3989L47.2035 29.325L47.5417 28.3989H47.9573V29.7575H47.681V28.7236L47.296 29.7575H47.0968L46.7111 28.7236H46.6963V29.7575H46.4349V28.3989H46.8352ZM32.8379 19.8696C31.1456 19.8696 30.299 21.2666 30.299 24.0587C30.299 25.658 30.5234 26.8178 30.9712 27.5406C31.386 28.2096 32.0356 28.5434 32.9201 28.5434C34.6123 28.5434 35.4588 27.1356 35.4588 24.3212C35.4588 22.7442 35.2345 21.5944 34.7872 20.8712C34.372 20.2037 33.7227 19.8696 32.838 19.8696" fill="#F29111"/>
<path d="M28.4024 0.687067C28.9638 -0.692676 30.9266 0.352203 31.6883 0.834167C31.875 0.954751 32.0892 1.20951 32.3032 1.30367C32.6371 1.31679 32.9708 1.34293 33.3053 1.35689C33.9327 1.50436 34.5204 1.62485 35.0148 1.9065C37.3123 3.25991 38.8079 4.63909 40.1844 6.91718C40.4785 7.3997 40.6255 7.92186 40.8657 8.44402C41.1992 9.22234 41.5739 10.0394 41.9609 10.7753C42.1342 11.1242 42.2683 11.5122 42.5089 11.8069C42.6029 11.9416 42.8697 11.9814 43.0292 12.0618C43.4702 12.2902 44.0045 12.4635 44.4193 12.7315C45.1939 13.2146 45.9428 13.7902 46.6235 14.3796C46.8773 14.607 47.0502 14.9291 47.292 15.1697V15.2911C47.0774 15.357 46.8635 15.4244 46.6495 15.4785C46.182 15.5986 45.7679 15.5714 45.3143 15.6917C45.0341 15.773 44.6861 15.8803 44.3921 15.9075L44.4193 15.9349C44.5922 16.4291 45.5278 16.8311 45.9557 17.1267C46.4754 17.5018 46.9569 17.9568 47.3445 18.4793C47.4784 18.6127 47.6122 18.734 47.7454 18.867C47.8385 19.0017 47.8648 19.176 47.959 19.2961V19.3367C47.8547 19.2999 47.7796 19.2296 47.7085 19.1562L47.6661 19.1119C47.6237 19.0678 47.5809 19.0245 47.5321 18.9888C47.2372 18.7874 46.9444 18.5464 46.6495 18.3591C46.1426 18.0374 45.5546 17.8506 45.0341 17.5277C44.7397 17.3402 44.4592 17.1267 44.1787 16.9121C43.9244 16.7241 43.6443 16.363 43.4845 16.095C43.3903 15.947 43.3774 15.773 43.2699 15.6659C43.2891 15.487 43.4529 15.4339 43.6182 15.3902L43.6563 15.3802C43.7133 15.3654 43.7691 15.3506 43.8179 15.331C44.5123 15.0361 45.3403 14.9291 46.4094 14.9559C46.3691 14.6873 45.7011 14.3528 45.4878 14.192C45.0597 13.8833 44.6065 13.5613 44.1523 13.2804C43.9117 13.1333 43.497 13.026 43.2304 12.9057C42.8697 12.7583 42.068 12.6109 41.8681 12.33C41.5286 11.8872 41.2846 11.359 41.0478 10.8255L40.9834 10.6799L40.9188 10.5344C40.6389 9.89197 40.2912 9.22215 40.0106 8.56432C39.8639 8.24342 39.7966 7.96177 39.636 7.65399C38.6611 5.7653 37.2183 4.18402 35.4691 3.07196C34.8942 2.71011 34.2532 2.37525 33.5456 2.14767C33.1446 2.02652 32.6634 2.09351 32.2361 2.00057H31.9549C31.7149 1.93292 31.5146 1.67845 31.3273 1.54428C30.9138 1.26338 30.4996 1.07477 30.005 0.874362C29.8317 0.793972 29.3369 0.606771 29.1641 0.754152C29.0572 0.781042 29.0029 0.821424 28.9766 0.928798C28.8702 1.08902 28.9638 1.33037 29.03 1.47813C29.2306 1.90631 29.5109 2.16078 29.7653 2.52263C29.9916 2.84354 30.2727 3.20538 30.4332 3.5543C30.7794 4.30432 30.9406 5.1353 31.2614 5.88523C31.3804 6.16725 31.5685 6.48815 31.7417 6.74253C31.8885 6.94444 32.1554 7.09042 32.2361 7.34602C32.3971 7.61398 31.9952 8.49817 31.9022 8.77898C31.5542 9.87773 31.6217 11.405 32.0224 12.3574L32.0437 12.4077L32.0651 12.4585C32.2114 12.8074 32.368 13.183 32.757 13.2805C32.7838 13.2539 32.757 13.2679 32.8101 13.2539C32.9043 12.5167 32.9308 11.8068 33.1848 11.23C33.3316 10.8694 33.6247 10.6144 33.8256 10.3201C33.9596 10.4003 33.9596 10.6421 34.0394 10.8021C34.2132 11.2172 34.3999 11.6723 34.6142 12.0885C35.0541 12.9458 35.549 13.777 36.1098 14.5269C36.2977 14.7948 36.5641 15.0897 36.8045 15.3309C36.9116 15.4243 37.0315 15.4783 37.1119 15.5985H37.1382V15.639C36.7374 15.4912 36.4834 15.0765 36.1638 14.8344C35.5621 14.3794 34.8415 13.696 34.4267 13.0402C34.2532 12.6637 34.0657 12.3029 33.8787 11.9283V11.9012C33.7988 12.0082 33.8256 12.1145 33.7856 12.2764C33.6121 12.9458 33.7457 13.7095 33.1446 13.9503C32.4633 14.2324 31.955 13.4953 31.7417 13.1603C31.0602 12.0485 30.8735 10.173 31.3541 8.65895C31.4609 8.32381 31.4754 7.92186 31.6618 7.65427C31.6216 7.41235 31.4352 7.3462 31.3273 7.19798C31.1404 6.94463 30.9803 6.64949 30.8339 6.36813C30.5527 5.81852 30.3526 5.16181 30.1391 4.57238C30.0453 4.33168 30.0184 4.09004 29.9248 3.86218C29.7652 3.51439 29.471 3.16547 29.244 2.85778C28.9367 2.41554 28.0416 1.55842 28.4024 0.687067ZM32.7835 3.31191C32.8192 3.3477 32.8623 3.379 32.9069 3.40982L32.9607 3.44674C33.0323 3.4964 33.1017 3.54868 33.1443 3.61989C33.2117 3.71414 33.2243 3.80718 33.305 3.90162C33.305 4.22365 33.2117 4.43774 33.0233 4.57116C33.0233 4.57116 33.0105 4.58522 32.9973 4.59834C32.8905 4.38368 32.7969 4.17015 32.6894 3.95569C32.5569 3.76849 32.3697 3.61998 32.2618 3.40608H32.2358V3.37919C32.3971 3.33937 32.5569 3.31191 32.7835 3.31191Z" fill="#00758F"/>
</svg>
