<svg width="33" height="32" viewBox="0 0 33 32" fill="none" xmlns="http://www.w3.org/2000/svg">
<path d="M15.8297 1.47673V2.95958H13.1703V3.92398H15.8297V6.87744H16.8693V3.92398H19.5952V2.95958H16.8693V0H15.8297V1.47673Z" fill="#7099A6"/>
<path d="M7.13813 5.23779V7.38964H3.11267V8.73975H7.13813V13.1098H8.63106V8.73975H12.7169V7.38964H8.63106V3.08594H7.13813V5.23779Z" fill="#EB912C"/>
<path d="M24.0076 5.23779V7.38964H19.9821V8.80612H24.0076V13.1098H25.5609V8.80612H29.5863V7.38964H25.5609V3.08594H24.0076V5.23779Z" fill="#59879B"/>
<path d="M15.4429 12.5673V14.9784H10.9641V16.7746H15.4429V21.5966H17.2562V16.7746H21.7348V14.9784H17.2562V10.1562H15.4429V12.5673Z" fill="#E8762C"/>
<path d="M28.6132 13.7841V15.2972H25.8872V16.5207H28.6132V19.5405H29.9731V16.5207H32.6991V15.2972H29.9731V12.2773H28.6132V13.7841Z" fill="#5B6591"/>
<path d="M2.6595 13.9172V15.3639H0V16.3886H2.6595V19.2819H3.69899V16.3886L6.42491 16.2921V15.3639H3.69899V12.4707H2.6595V13.9172Z" fill="#7099A6"/>
<path d="M7.13813 20.728V22.8799H3.11267V24.2964H7.13813V28.6001H8.69148V24.2964H12.7169V22.8799H8.69148V18.5762H7.13813V20.728Z" fill="#C72035"/>
<path d="M24.0076 20.728V22.8799H19.9821V24.2301H24.0076V28.6001H25.5609V24.2301H29.5863V22.8799H25.5609V18.5762H24.0076V20.728Z" fill="#1F447E"/>
<path d="M15.7029 26.1965V27.7034H12.9769V28.927H15.7029V31.9469H17.0628V28.927H19.7887V27.7034H17.0628V24.6836H15.7029V26.1965Z" fill="#5B6591"/>
</svg>
