<svg width="35" height="35" viewBox="0 0 35 35" fill="none" xmlns="http://www.w3.org/2000/svg">
<circle cx="17.5" cy="17.5" r="17.5" fill="#C36B7B" fill-opacity="0.2"/>
<path d="M14.5054 15.0008C14.5147 14.2083 14.8024 13.4513 15.3073 12.8909C15.8122 12.3305 16.4942 12.0111 17.2081 12.0008C17.922 12.0111 18.6041 12.3305 19.1089 12.8909C19.6138 13.4513 19.9016 14.2083 19.9109 15.0008C19.9016 15.7932 19.6138 16.5503 19.1089 17.1106C18.6041 17.671 17.922 17.9904 17.2081 18.0008C16.4942 17.9904 15.8122 17.671 15.3073 17.1106C14.8024 16.5503 14.5147 15.7932 14.5054 15.0008ZM17.2081 24.0008L20.8118 25.0008V21.9208C19.725 22.6472 18.4766 23.0214 17.2081 23.0008C15.9396 23.0214 14.6912 22.6472 13.6044 21.9208V25.0008M17.2081 9.00077C16.4982 8.98639 15.7931 9.13333 15.1362 9.43256C14.4792 9.73179 13.8844 10.177 13.3882 10.7408C12.8748 11.2921 12.4691 11.9549 12.1963 12.6877C11.9235 13.4206 11.7895 14.2079 11.8026 15.0008C11.7932 15.7886 11.929 16.5702 12.2017 17.2976C12.4744 18.025 12.8781 18.6829 13.3882 19.2308C13.8821 19.8 14.4759 20.2507 15.1329 20.5552C15.7899 20.8596 16.4962 21.0113 17.2081 21.0008C17.92 21.0113 18.6263 20.8596 19.2833 20.5552C19.9404 20.2507 20.5341 19.8 21.028 19.2308C21.5381 18.6829 21.9419 18.025 22.2146 17.2976C22.4872 16.5702 22.623 15.7886 22.6137 15.0008C22.6267 14.2079 22.4927 13.4206 22.22 12.6877C21.9472 11.9549 21.5415 11.2921 21.028 10.7408C20.5318 10.177 19.937 9.73179 19.2801 9.43256C18.6232 9.13333 17.9181 8.98639 17.2081 9.00077ZM24.4155 15.0008C24.3971 15.9607 24.2231 16.9092 23.902 17.8008C23.614 18.7086 23.1773 19.5494 22.6137 20.2808V28.0008L17.2081 26.0008L11.8026 28.0008V20.2808C10.6365 18.8272 9.99489 16.947 10.0007 15.0008C9.98487 13.9514 10.1629 12.9095 10.524 11.9394C10.885 10.9694 11.4214 10.0918 12.0999 9.36077C12.7609 8.60087 13.5552 7.9994 14.4338 7.5935C15.3124 7.1876 16.2566 6.98587 17.2081 7.00077C18.1597 6.98587 19.1039 7.1876 19.9825 7.5935C20.861 7.9994 21.6553 8.60087 22.3163 9.36077C22.9949 10.0918 23.5312 10.9694 23.8923 11.9394C24.2533 12.9095 24.4314 13.9514 24.4155 15.0008Z" fill="#C36B7B"/>
</svg>
