<svg width="47" height="52" viewBox="0 0 47 52" fill="none" xmlns="http://www.w3.org/2000/svg">
<path fill-rule="evenodd" clip-rule="evenodd" d="M35.4377 1.31865C27.5723 -0.439549 19.4156 -0.439549 11.5502 1.31865L10.7027 1.50615C8.48965 1.99948 6.45693 3.09734 4.83086 4.6775C3.2048 6.25766 2.04919 8.25812 1.49271 10.4561C-0.497569 18.3129 -0.497569 26.5419 1.49271 34.3986C2.02347 36.4949 3.09964 38.4132 4.61189 39.9589C6.12414 41.5045 8.01857 42.6223 10.1027 43.1986L11.2652 50.1386C11.3023 50.359 11.3978 50.5654 11.5418 50.7363C11.6858 50.9073 11.8729 51.0365 12.0838 51.1105C12.2946 51.1845 12.5215 51.2007 12.7407 51.1573C12.9599 51.1138 13.1635 51.0125 13.3302 50.8636L20.1577 44.7561C25.2829 45.0655 30.4262 44.6557 35.4377 43.5387L36.2877 43.3512C38.5008 42.8578 40.5335 41.76 42.1596 40.1798C43.7856 38.5996 44.9412 36.5992 45.4977 34.4011C47.488 26.5444 47.488 18.3154 45.4977 10.4586C44.941 8.2603 43.785 6.25963 42.1585 4.67943C40.532 3.09924 38.4987 2.00157 36.2852 1.50865L35.4377 1.31865ZM13.6602 10.2536C13.1956 10.1856 12.7216 10.2792 12.3177 10.5186H12.2827C11.3452 11.0686 10.5002 11.7611 9.78021 12.5761C9.18021 13.2686 8.85521 13.9686 8.77021 14.6436C8.72021 15.0436 8.75521 15.4486 8.87271 15.8311L8.91771 15.8561C9.59271 17.8386 10.4727 19.7461 11.5477 21.5411C12.9344 24.062 14.6402 26.3937 16.6227 28.4786L16.6827 28.5636L16.7777 28.6336L16.8352 28.7011L16.9052 28.7611C18.9977 30.7495 21.3348 32.4633 23.8602 33.8611C26.7477 35.4336 28.5002 36.1761 29.5527 36.4861V36.5011C29.8602 36.5961 30.1402 36.6386 30.4227 36.6386C31.3195 36.5743 32.1685 36.2097 32.8327 35.6036C33.6452 34.8836 34.3327 34.0361 34.8677 33.0936V33.0761C35.3702 32.1261 35.2002 31.2311 34.4752 30.6236C33.0202 29.3497 31.4453 28.2194 29.7727 27.2486C28.6527 26.6411 27.5152 27.0086 27.0552 27.6236L26.0727 28.8636C25.5677 29.4786 24.6527 29.3936 24.6527 29.3936L24.6277 29.4086C17.8002 27.6661 15.9777 20.7536 15.9777 20.7536C15.9777 20.7536 15.8927 19.8136 16.5252 19.3336L17.7552 18.3436C18.3452 17.8636 18.7552 16.7286 18.1227 15.6086C17.1541 13.9372 16.0264 12.3632 14.7552 10.9086C14.4771 10.5671 14.0877 10.3343 13.6552 10.2511M25.1952 7.24865C24.8637 7.24865 24.5457 7.38034 24.3113 7.61477C24.0769 7.84919 23.9452 8.16713 23.9452 8.49865C23.9452 8.83017 24.0769 9.14811 24.3113 9.38253C24.5457 9.61695 24.8637 9.74865 25.1952 9.74865C28.3577 9.74865 30.9827 10.7811 33.0602 12.7611C34.1277 13.8436 34.9602 15.1261 35.5052 16.5311C36.0527 17.9387 36.3027 19.4411 36.2377 20.9461C36.2308 21.1103 36.2563 21.2742 36.3128 21.4285C36.3692 21.5828 36.4555 21.7245 36.5667 21.8454C36.7913 22.0897 37.1037 22.2347 37.4352 22.2486C37.7667 22.2626 38.0902 22.1442 38.3345 21.9197C38.5787 21.6951 38.7238 21.3827 38.7377 21.0511C38.8123 19.2 38.5051 17.3534 37.8352 15.6261C37.1622 13.8901 36.1374 12.312 34.8252 10.9911L34.8002 10.9661C32.2227 8.50365 28.9602 7.24865 25.1952 7.24865ZM25.1102 11.3586C24.7787 11.3586 24.4607 11.4903 24.2263 11.7248C23.9919 11.9592 23.8602 12.2771 23.8602 12.6086C23.8602 12.9402 23.9919 13.2581 24.2263 13.4925C24.4607 13.727 24.7787 13.8586 25.1102 13.8586H25.1527C27.4327 14.0211 29.0927 14.7811 30.2552 16.0286C31.4477 17.3136 32.0652 18.9111 32.0177 20.8861C32.0101 21.2177 32.1345 21.5386 32.3635 21.7785C32.5925 22.0183 32.9074 22.1573 33.239 22.1649C33.5705 22.1725 33.8914 22.0481 34.1313 21.8191C34.3711 21.5901 34.5101 21.2752 34.5177 20.9436C34.5777 18.3511 33.7427 16.1136 32.0877 14.3286V14.3236C30.3952 12.5086 28.0727 11.5486 25.2777 11.3611L25.2352 11.3561L25.1102 11.3586ZM25.0627 15.5461C24.8954 15.5314 24.7269 15.5505 24.5671 15.6023C24.4074 15.6541 24.2597 15.7376 24.133 15.8477C24.0062 15.9579 23.9029 16.0925 23.8293 16.2434C23.7557 16.3943 23.7133 16.5586 23.7045 16.7263C23.6958 16.894 23.7209 17.0617 23.7785 17.2195C23.836 17.3773 23.9247 17.5218 24.0394 17.6446C24.154 17.7673 24.2922 17.8657 24.4457 17.9338C24.5991 18.0019 24.7648 18.0384 24.9327 18.0411C25.9777 18.0961 26.6452 18.4111 27.0652 18.8336C27.4877 19.2586 27.8027 19.9411 27.8602 21.0086C27.8633 21.1764 27.9002 21.3418 27.9686 21.495C28.037 21.6482 28.1355 21.7861 28.2583 21.9004C28.3811 22.0147 28.5257 22.1031 28.6834 22.1604C28.8411 22.2176 29.0087 22.2425 29.1763 22.2336C29.3438 22.2247 29.5079 22.1822 29.6586 22.1086C29.8094 22.0349 29.9438 21.9317 30.0538 21.805C30.1638 21.6784 30.2472 21.5308 30.299 21.3712C30.3507 21.2117 30.3699 21.0433 30.3552 20.8761C30.2752 19.3761 29.8052 18.0511 28.8427 17.0761C27.8752 16.1011 26.5577 15.6261 25.0627 15.5461Z" fill="white"/>
</svg>
